<svg width="580" height="580" xmlns="http://www.w3.org/2000/svg" xmlns:xlink="http://www.w3.org/1999/xlink" overflow="hidden"><defs><clipPath id="clip0"><rect x="350" y="70" width="580" height="580"/></clipPath></defs><g clip-path="url(#clip0)" transform="translate(-350 -70)"><path d="M498.258 87.7558 600.217 87.7558C609.601 87.7558 617.211 95.3639 617.211 104.749L617.211 614.543C617.211 623.924 609.596 631.537 600.217 631.537L498.258 631.537C488.873 631.537 481.265 623.929 481.265 614.543L481.265 104.749C481.265 95.3639 488.873 87.7558 498.258 87.7558Z" fill="#FFFFFF"/><path d="M694.854 85.3379C685.484 84.8119 677.461 91.9817 676.936 101.352L657.849 441.388C657.325 450.758 664.493 458.781 673.865 459.306L775.662 465.021C785.029 465.545 793.055 458.37 793.582 449.006L812.666 108.97C813.193 99.6001 806.023 91.5777 796.653 91.0517ZM671.296 493.202C661.931 492.677 653.903 499.85 653.379 509.217L647.663 611.014C647.139 620.384 654.307 628.407 663.678 628.934L766.404 634.7C775.776 635.224 783.797 628.057 784.323 618.685L790.036 516.888C790.563 507.516 783.393 499.495 774.023 498.968Z" fill="#FFFFFF"/></g></svg>