<svg width="546" height="546" xmlns="http://www.w3.org/2000/svg" xmlns:xlink="http://www.w3.org/1999/xlink" overflow="hidden"><defs><clipPath id="clip0"><rect x="367" y="87" width="546" height="546"/></clipPath></defs><g clip-path="url(#clip0)" transform="translate(-367 -87)"><path d="M506.567 103.715 602.549 103.715C611.384 103.715 618.546 110.877 618.546 119.712L618.546 599.621C618.546 608.452 611.379 615.618 602.549 615.618L506.567 615.618C497.732 615.618 490.57 608.456 490.57 599.621L490.57 119.712C490.57 110.877 497.732 103.715 506.567 103.715Z"/><path d="M691.639 101.439C682.818 100.944 675.266 107.693 674.771 116.514L656.804 436.617C656.309 445.438 663.058 452.99 671.879 453.485L767.71 458.864C776.526 459.359 784.083 452.605 784.578 443.788L802.545 123.686C803.04 114.865 796.291 107.313 787.47 106.818ZM669.462 485.394C660.646 484.899 653.089 491.652 652.594 500.469L647.215 596.3C646.72 605.121 653.469 612.673 662.29 613.168L758.995 618.596C767.816 619.091 775.368 612.342 775.863 603.521L781.242 507.69C781.737 498.869 774.988 491.317 766.167 490.821Z"/></g></svg>